<svg xmlns="http://www.w3.org/2000/svg" viewBox="0 0 32 32">
  <rect width="32" height="32" rx="7" fill="#0f172a"/>
  <!-- side-view car: reads at 16px -->
  <path
    fill="#cbd5e1"
    d="M4 20v2c0 .6.4 1 1 1h1.3a3.5 3.5 0 0 0 6.9 0h6.6a3.5 3.5 0 0 0 6.9 0H27c.6 0 1-.4 1-1v-2.2c0-.7-.5-1.2-1.2-1.2h-1.5l-1.8-4.5a2 2 0 0 0-1.9-1.3H11.4a2 2 0 0 0-1.9 1.2L7.7 18.8H5.2c-.7 0-1.2.5-1.2 1.2Z"
  />
  <circle cx="11.5" cy="21" r="2.2" fill="#0f172a" stroke="#94a3b8" stroke-width="1.2"/>
  <circle cx="22.5" cy="21" r="2.2" fill="#0f172a" stroke="#94a3b8" stroke-width="1.2"/>
  <path fill="#64748b" d="M12 13.5h8l1.4 3.5h-11L12 13.5Z"/>
</svg>
